<?xml version="1.0" encoding="utf-8"?>
<!-- Generator: Adobe Illustrator 22.0.1, SVG Export Plug-In . SVG Version: 6.00 Build 0)  -->
<svg version="1.1" id="Layer_1" xmlns="http://www.w3.org/2000/svg" xmlns:xlink="http://www.w3.org/1999/xlink" x="0px" y="0px"
	 viewBox="0 0 512 512" style="enable-background:new 0 0 512 512;" xml:space="preserve">
<g id="business_plan">
	<path d="M0,0v512h405.3V76.5L328.8,0H0z M384,490.7H21.3V21.3h288V96H384V490.7z M330.7,32l42.7,42.7h-42.7V32z"/>
	<path d="M128,373.3c0-5.9-4.8-10.7-10.7-10.7c-3,0-5.6,1.2-7.5,3.1l0,0L96,379.6l-13.8-13.8l0,0c-1.9-1.9-4.6-3.1-7.5-3.1
		c-5.9,0-10.7,4.8-10.7,10.7c0,3,1.2,5.6,3.1,7.6l13.8,13.8l-13.8,13.8c-1.9,1.9-3.1,4.6-3.1,7.5c0,5.9,4.8,10.7,10.7,10.7
		c3,0,5.6-1.2,7.5-3.1L96,409.8l13.8,13.8c1.9,1.9,4.6,3.1,7.5,3.1c5.9,0,10.7-4.8,10.7-10.7c0-3-1.2-5.6-3.1-7.5l0,0l-13.8-13.8
		l13.8-13.8C126.8,379,128,376.3,128,373.3z"/>
	<path d="M295.5,259.1c-1.9-1.9-4.6-3.1-7.5-3.1c-5.9,0-10.7,4.8-10.7,10.7c0,2.9,1.2,5.6,3.1,7.5l13.8,13.8l-13.8,13.8
		c-1.9,1.9-3.1,4.6-3.1,7.5c0,5.9,4.8,10.7,10.7,10.7c3,0,5.6-1.2,7.6-3.1l13.8-13.8l13.8,13.8c1.9,1.9,4.6,3.1,7.5,3.1
		c5.9,0,10.7-4.8,10.7-10.7c0-2.9-1.2-5.6-3.1-7.5L324.4,288l13.8-13.8c1.9-1.9,3.1-4.6,3.1-7.5c0-5.9-4.8-10.7-10.7-10.7
		c-2.9,0-5.6,1.2-7.5,3.1l-13.8,13.8L295.5,259.1z"/>
	<path d="M149.3,160c0-2.9-1.2-5.6-3.1-7.5l0,0l-13.8-13.8l13.8-13.8c1.9-1.9,3.1-4.6,3.1-7.5c0-5.9-4.8-10.7-10.7-10.7
		c-2.9,0-5.6,1.2-7.5,3.1l0,0l-13.8,13.8l-13.8-13.8l0,0c-1.9-1.9-4.6-3.1-7.5-3.1c-5.9,0-10.7,4.8-10.7,10.7c0,2.9,1.2,5.6,3.1,7.5
		l13.8,13.8l-13.8,13.8c-1.9,1.9-3.1,4.6-3.1,7.5c0,5.9,4.8,10.7,10.7,10.7c3,0,5.6-1.2,7.6-3.1l13.8-13.8l13.8,13.8
		c1.9,1.9,4.6,3.1,7.5,3.1C144.6,170.7,149.3,165.9,149.3,160z"/>
	<path d="M246.2,170.7L246.2,170.7l-32.9,0c-5.9,0-10.7,4.8-10.7,10.7c0,5.9,4.8,10.7,10.7,10.7h6.3l-77.8,77.8
		c-1.9,1.9-3.1,4.6-3.1,7.5c0,2.9,1.2,5.6,3.1,7.5l24.1,24.1c-3.8,6.4-5.9,13.8-5.9,21.7c0,23.6,19.1,42.7,42.7,42.7
		s42.7-19.1,42.7-42.7c0-23.6-19.1-42.7-42.7-42.7c-7.9,0-15.3,2.2-21.7,5.9l-16.6-16.6l70.2-70.3v6.3c0,5.9,4.8,10.7,10.7,10.7
		c5.9,0,10.7-4.8,10.7-10.7v-32C256,175.7,251.7,171.1,246.2,170.7z M202.7,309.3c11.8,0,21.3,9.6,21.3,21.3
		c0,11.8-9.6,21.3-21.3,21.3c-11.8,0-21.3-9.6-21.3-21.3C181.3,318.9,190.9,309.3,202.7,309.3z"/>
	<path d="M512,108c0-23.6-19.1-42.7-42.7-42.7c-23.6,0-42.7,19.1-42.7,42.7v288h13.2l-13.2,46.2l42.7,28.5l42.7-28.5L498.8,396H512
		V108z M469.3,445l-17.9-11.9l10.6-37.1h14.5l10.6,37.1L469.3,445z M490.7,374.6H448V108c0-11.8,9.6-21.3,21.3-21.3
		c11.8,0,21.3,9.6,21.3,21.3V374.6z"/>
</g>
</svg>
